<?xml version="1.0" encoding="UTF-8" standalone="no"?>
<!DOCTYPE svg PUBLIC "-//W3C//DTD SVG 1.1//EN" "http://www.w3.org/Graphics/SVG/1.1/DTD/svg11.dtd">
<svg width="100%" height="100%" viewBox="0 0 600 900" version="1.1" xmlns="http://www.w3.org/2000/svg" xmlns:xlink="http://www.w3.org/1999/xlink" xml:space="preserve" xmlns:serif="http://www.serif.com/" style="fill-rule:evenodd;clip-rule:evenodd;stroke-linejoin:round;stroke-miterlimit:2;">
    <g transform="matrix(1,0,0,1,-549.46,-1277.49)">
        <g transform="matrix(1.11494,0,0,1.11494,-63.1541,-146.833)">
            <rect x="549.46" y="1277.49" width="269.073" height="269.073" style="fill:white;"/>
        </g>
        <g transform="matrix(1.11494,0,0,1.11494,236.846,-146.833)">
            <rect x="549.46" y="1277.49" width="269.073" height="269.073"/>
        </g>
        <g transform="matrix(1.11494,0,0,1.11494,-63.1541,153.167)">
            <rect x="549.46" y="1277.49" width="269.073" height="269.073"/>
        </g>
        <g transform="matrix(1.11494,0,0,1.11494,236.846,153.167)">
            <rect x="549.46" y="1277.49" width="269.073" height="269.073" style="fill:white;"/>
        </g>
        <g transform="matrix(1.11494,0,0,1.11494,-63.1541,453.167)">
            <rect x="549.46" y="1277.49" width="269.073" height="269.073" style="fill:white;"/>
        </g>
        <g transform="matrix(1.11494,0,0,1.11494,236.846,453.167)">
            <rect x="549.46" y="1277.49" width="269.073" height="269.073"/>
        </g>
    </g>
</svg>
