<svg
  xmlns="http://www.w3.org/2000/svg"
  xmlns:xlink="http://www.w3.org/1999/xlink"
  version="1.1"
  x="0px"
  y="0px"
  viewBox="8 8 84 84"
  enable-background="new 0 0 100 100"
  xml:space="preserve"
>
  <path
    d="M88.761,21.897L72.92,8.696c-1.273-1.062-3.166-0.889-4.225,0.384c-1.061,1.273-0.889,3.164,0.384,4.225  l13.214,11.013C80.907,25.418,80,27.096,80,29c0,3.309,2.691,6,6,6v27c0,3.309-2.691,6-6,6s-6-2.691-6-6V47c0-4.963-4.037-9-9-9h-3  V20c0-6.617-5.383-12-12-12H26c-6.617,0-12,5.383-12,12v59.092l-5.496,8.244c-0.614,0.92-0.671,2.104-0.149,3.079  C8.877,91.391,9.894,92,11,92h54c1.106,0,2.123-0.609,2.646-1.585c0.521-0.976,0.464-2.159-0.149-3.079L62,79.092V44h3  c1.654,0,3,1.346,3,3v15c0,6.617,5.383,12,12,12s12-5.383,12-12V28.81C92,26.13,90.819,23.611,88.761,21.897z M51.5,38h-27  c-0.828,0-1.5-0.672-1.5-1.5v-15c0-0.828,0.672-1.5,1.5-1.5h27c0.828,0,1.5,0.672,1.5,1.5v15C53,37.328,52.328,38,51.5,38z"
  />
</svg>
